<svg width="240" height="240" viewBox="0 0 240 240" xmlns="http://www.w3.org/2000/svg" role="img" aria-label="Lingchong Hu — bear avatar">
  <circle cx="120" cy="120" r="119" fill="#EBE5D9"/>
  <g transform="translate(120 120) scale(0.78) translate(-120 -120)">
    <circle cx="78" cy="72" r="34" fill="#A9744F"/>
    <circle cx="162" cy="72" r="34" fill="#A9744F"/>
    <circle cx="78" cy="72" r="16" fill="#D98B6A"/>
    <circle cx="162" cy="72" r="16" fill="#D98B6A"/>
    <ellipse cx="120" cy="130" rx="76" ry="70" fill="#A9744F"/>
    <circle cx="74" cy="150" r="13" fill="#E3A07F" opacity="0.6"/>
    <circle cx="166" cy="150" r="13" fill="#E3A07F" opacity="0.6"/>
    <ellipse cx="120" cy="152" rx="44" ry="34" fill="#ECDCC4"/>
    <circle cx="96" cy="118" r="7.5" fill="#3A2418"/>
    <circle cx="144" cy="118" r="7.5" fill="#3A2418"/>
    <circle cx="98.4" cy="115.4" r="2.3" fill="#FFFFFF" opacity="0.92"/>
    <circle cx="146.4" cy="115.4" r="2.3" fill="#FFFFFF" opacity="0.92"/>
    <ellipse cx="120" cy="140" rx="13" ry="9" fill="#3A2418"/>
    <path d="M120 149 V157 M120 157 C112 165 104 162 101 155 M120 157 C128 165 136 162 139 155" fill="none" stroke="#6B4A32" stroke-width="3" stroke-linecap="round" stroke-linejoin="round"/>
  </g>
  <circle cx="120" cy="120" r="118.6" fill="none" stroke="#D4CBB8" stroke-width="1.4"/>
</svg>
